<svg version="1.1" id="Layer_1" xmlns="http://www.w3.org/2000/svg" xmlns:xlink="http://www.w3.org/1999/xlink" x="0px" y="0px" width="32px" height="32px" viewBox="0 0 32 32" enable-background="new 0 0 32 32" xml:space="preserve">
  <g id="icon">
    <path d="M30.899,3.1h-1.434v24.244c0,0,-13.484,0.065,-13.484,1.756c0,-1.706,-13.484,-1.466,-13.484,-1.466V3.1H1.159C0.036,3,0.007,3.038,0.007,4.212C0.007,5.611,0,27.667,0,28.751C0,29.696,0.146,30,1.207,30c2.916,0,25.503,0,29.487,0c0.982,0,1.291,-0.31,1.291,-1.294c0,-0.977,0.014,-22.886,0.015,-24.284C32,3.248,32.022,3,30.899,3.1z" fill-rule="evenodd" fill="#217346"/>
    <path d="M15.99,3.721C15.578,2.126,2.5,2.533,2.5,2.533v25.101c0,0,12.946,-0.23,13.481,1.363c0,0.041,0,0.075,0,0.103c0,-0.026,0.003,-0.051,0.01,-0.076c0.006,0.025,0.01,0.051,0.01,0.076c0,-0.027,0,-0.062,0,-0.103c0.534,-1.591,13.465,-1.653,13.465,-1.653V2.537C29.465,2.537,16.37,2.133,15.99,3.721z" fill-rule="evenodd" fill="#FFFFFF"/>
    <path d="M22.198,24.1c-0.951,0,-1.766,-0.155,-2.423,-0.462l-0.057,-0.026v-1.416l0.143,0.07c0.352,0.172,0.73,0.306,1.123,0.399c0.393,0.093,0.776,0.14,1.138,0.14c0.633,0,1.109,-0.115,1.415,-0.341c0.302,-0.223,0.448,-0.563,0.448,-1.038c0,-0.413,-0.161,-0.708,-0.491,-0.901c-0.343,-0.2,-0.896,-0.301,-1.645,-0.301h-0.836v-1.289h0.848c1.301,0,1.933,-0.421,1.933,-1.288c0,-0.331,-0.104,-0.578,-0.319,-0.755c-0.217,-0.179,-0.547,-0.269,-0.981,-0.269c-0.31,0,-0.613,0.044,-0.9,0.13c-0.288,0.087,-0.635,0.259,-1.032,0.512l-0.08,0.051l-0.778,-1.094l0.078,-0.057c0.792,-0.575,1.724,-0.866,2.77,-0.866c0.874,0,1.568,0.19,2.063,0.564c0.504,0.38,0.759,0.911,0.759,1.577c0,0.552,-0.166,1.02,-0.495,1.39c-0.261,0.294,-0.61,0.513,-1.04,0.653c0.533,0.109,0.95,0.31,1.244,0.598c0.358,0.352,0.54,0.823,0.54,1.4c0,0.833,-0.304,1.486,-0.904,1.941C24.128,23.873,23.28,24.1,22.198,24.1zM12.255,23.986v-1.157l2.218,-2.198c0.64,-0.646,1.07,-1.11,1.277,-1.379c0.204,-0.264,0.355,-0.516,0.448,-0.747c0.092,-0.228,0.138,-0.476,0.138,-0.737c0,-0.353,-0.103,-0.622,-0.315,-0.822c-0.21,-0.198,-0.508,-0.299,-0.886,-0.299c-0.311,0,-0.616,0.057,-0.907,0.171c-0.294,0.114,-0.64,0.325,-1.029,0.627l-0.076,0.059l-0.861,-1.036l0.075,-0.062c0.479,-0.398,0.951,-0.685,1.405,-0.853c0.454,-0.167,0.945,-0.252,1.457,-0.252c0.81,0,1.471,0.213,1.963,0.634c0.497,0.424,0.748,1.001,0.748,1.714c0,0.388,-0.072,0.763,-0.213,1.112c-0.14,0.347,-0.358,0.708,-0.647,1.074c-0.286,0.363,-0.767,0.859,-1.43,1.474l-1.358,1.297h3.944v1.38H12.255zM8.842,23.986v-5.502c0,-0.51,0.01,-0.941,0.029,-1.286c-0.046,0.042,-0.095,0.085,-0.147,0.129c-0.13,0.111,-0.569,0.466,-1.306,1.055l-0.078,0.062l-0.809,-1.007l2.602,-2.016h1.271v8.565H8.842zM11.626,13.991l-0.705,-1.926H8.335l-0.69,1.926H6.256l2.701,-7.12h1.367l2.701,7.12H11.626zM10.561,10.931l-0.625,-1.783c-0.048,-0.126,-0.116,-0.329,-0.201,-0.6c-0.036,-0.116,-0.067,-0.217,-0.094,-0.306c-0.081,0.308,-0.185,0.639,-0.312,0.987l-0.6,1.701H10.561zM13.761,13.991V6.9h2.176c0.983,0,1.707,0.145,2.151,0.43c0.455,0.293,0.686,0.758,0.686,1.385c0,0.421,-0.113,0.777,-0.336,1.059c-0.18,0.228,-0.425,0.389,-0.731,0.481c0.396,0.105,0.7,0.279,0.905,0.517c0.245,0.284,0.369,0.67,0.369,1.149c0,0.645,-0.233,1.158,-0.694,1.525c-0.455,0.363,-1.093,0.546,-1.897,0.546H13.761zM16.221,12.88c0.463,0,0.815,-0.086,1.046,-0.257c0.227,-0.168,0.337,-0.428,0.337,-0.798c0,-0.336,-0.112,-0.577,-0.343,-0.737c-0.236,-0.164,-0.606,-0.246,-1.098,-0.246h-1.088v2.038H16.221zM16.105,9.764c0.464,0,0.805,-0.071,1.012,-0.211c0.201,-0.136,0.298,-0.365,0.298,-0.701c0,-0.299,-0.105,-0.508,-0.322,-0.639c-0.226,-0.137,-0.596,-0.206,-1.1,-0.206h-0.919v1.758H16.105zM25.143,13.773l0.052,-0.019V12.62l-0.104,0.032c-0.299,0.091,-0.591,0.166,-0.867,0.224c-0.273,0.057,-0.56,0.086,-0.852,0.086c-0.664,0,-1.177,-0.211,-1.524,-0.626c-0.351,-0.42,-0.53,-1.052,-0.53,-1.88c0,-0.79,0.186,-1.417,0.552,-1.862c0.362,-0.44,0.867,-0.663,1.502,-0.663c0.283,0,0.557,0.041,0.813,0.122c0.261,0.082,0.512,0.179,0.746,0.288l0.075,0.035l0.478,-1.088l-0.068,-0.033c-0.62,-0.301,-1.304,-0.454,-2.034,-0.454c-0.697,0,-1.313,0.149,-1.831,0.442c-0.52,0.294,-0.924,0.724,-1.198,1.276c-0.273,0.549,-0.411,1.197,-0.411,1.927c0,1.159,0.286,2.065,0.851,2.692c0.567,0.63,1.388,0.949,2.44,0.949C23.94,14.086,24.583,13.981,25.143,13.773z" fill="#6D6E71"/>
    <path d="M29.48,2.037c-0.03,-0.001,-3.039,-0.092,-6.18,-0.015c-5.359,0.13,-6.811,0.635,-7.312,0.96c-0.505,-0.327,-1.965,-0.833,-7.32,-0.964c-3.143,-0.077,-6.153,0.015,-6.183,0.016L2,2.049v26.094l0.509,-0.009c0.031,0,3.106,-0.053,6.275,0.074c6.026,0.241,6.683,0.901,6.738,0.975c-0.006,-0.008,-0.022,-0.039,-0.022,-0.083h0.981c0,0.043,-0.015,0.074,-0.02,0.081c0.054,-0.075,0.699,-0.746,6.724,-1.122c3.169,-0.198,6.252,-0.215,6.283,-0.215l0.498,-0.002V2.052L29.48,2.037zM28.965,26.849c-1.066,0.014,-3.684,0.065,-6.276,0.24c-1.978,0.133,-3.558,0.313,-4.696,0.532c-0.526,0.101,-1.056,0.225,-1.493,0.4V26h-1.019v2.035c-0.894,-0.338,-2.741,-0.676,-6.813,-0.832c-1.689,-0.065,-3.339,-0.08,-4.509,-0.08c-0.476,0,-0.873,0.003,-1.16,0.005V3.021c0.99,-0.023,3.354,-0.063,5.776,0c5.387,0.139,6.492,0.667,6.705,0.829V5H16.5V3.846c0.217,-0.161,1.328,-0.683,6.696,-0.821c2.418,-0.062,4.78,-0.023,5.769,0V26.849z" fill="#797979"/>
  </g>
</svg>
