<svg version="1.1" id="Layer_1" xmlns="http://www.w3.org/2000/svg" xmlns:xlink="http://www.w3.org/1999/xlink" x="0px" y="0px" width="16px" height="16px" viewBox="0 0 16 16" enable-background="new 0 0 16 16" xml:space="preserve">
  <g id="icon">
    <path d="M15.4,2h-0.9v11.244c0,0,-6.5,-0.161,-6.5,1.256c0,-1.467,-6.5,-0.966,-6.5,-0.966V2H0.6c-0.567,0.05,-0.596,0.026,-0.596,1.2C0.004,4.465,0,12.661,0,13.745C0,14.69,0.081,15,0.667,15c1.613,0,12.445,0,14.649,0c0.543,0,0.714,-0.31,0.714,-1.294c0,-0.978,0.008,-9.042,0.008,-10.299C16.038,2.235,16,2.05,15.4,2z" fill="#217346"/>
    <path d="M8,2.293c0,0.002,0,0.005,0,0.007c0,-1.266,-6.5,-0.766,-6.5,-0.766v12.001c0,0,6.5,-0.501,6.5,0.966c0,-1.417,6.5,-1.256,6.5,-1.256V1.537C14.5,1.537,8,1.033,8,2.293z" fill-rule="evenodd" fill="#FFFFFF"/>
    <path d="M14.539,1.038c-1.249,-0.097,-5.245,-0.334,-6.542,0.453c-1.306,-0.786,-5.289,-0.552,-6.535,-0.456L1,1.07v13.004l0.538,-0.041c0.014,-0.001,1.456,-0.11,2.95,-0.073c2.743,0.068,3.012,0.548,3.014,0.553C7.502,14.51,7.5,14.504,7.5,14.5h1c0,0.008,-0.002,0.016,-0.004,0.019c0.002,-0.005,0.269,-0.493,3.025,-0.698c1.499,-0.111,2.952,-0.077,2.966,-0.077l0.512,0.013V1.074L14.539,1.038zM14,12.736c-1.276,-0.009,-4.051,0.045,-5.5,0.629V12.5H7.5v0.877c-0.926,-0.343,-2.396,-0.432,-3.671,-0.432c-0.713,0,-1.366,0.028,-1.829,0.055V2.002c0.532,-0.031,1.456,-0.073,2.411,-0.065c2.415,0.019,2.98,0.333,3.089,0.419V2.8h1v-0.449c0.112,-0.086,0.682,-0.396,3.091,-0.413c0.955,-0.007,1.878,0.036,2.409,0.067V12.736z" fill="#797979"/>
    <path d="M6.992,11l-0.524,-1.893H4.546L4.032,11H3l2.008,-7h1.016l2.008,7H6.992zM6.2,7.991l-0.464,-1.753c-0.036,-0.124,-0.086,-0.323,-0.15,-0.59c-0.027,-0.114,-0.05,-0.213,-0.07,-0.3c-0.06,0.303,-0.138,0.628,-0.232,0.97l-0.446,1.673H6.2zM9.12,11V4.028h1.617c0.731,0,1.269,0.142,1.599,0.423c0.338,0.288,0.51,0.746,0.51,1.361c0,0.414,-0.084,0.764,-0.249,1.041c-0.134,0.224,-0.316,0.382,-0.543,0.473c0.294,0.104,0.52,0.274,0.673,0.508c0.182,0.279,0.274,0.659,0.274,1.13c0,0.634,-0.173,1.138,-0.516,1.499c-0.338,0.356,-0.813,0.537,-1.41,0.537H9.12zM10.949,9.908c0.344,0,0.606,-0.085,0.777,-0.253c0.169,-0.165,0.251,-0.421,0.251,-0.784c0,-0.331,-0.083,-0.568,-0.255,-0.725c-0.176,-0.161,-0.45,-0.242,-0.816,-0.242h-0.809v2.004H10.949zM10.863,6.844c0.345,0,0.598,-0.07,0.752,-0.208c0.149,-0.133,0.222,-0.359,0.222,-0.689c0,-0.294,-0.078,-0.5,-0.239,-0.629c-0.168,-0.135,-0.443,-0.203,-0.817,-0.203h-0.683v1.728H10.863z" fill="#6D6E71"/>
  </g>
</svg>
